<svg width="355" height="38" id="Calque_1" xmlns="http://www.w3.org/2000/svg" viewBox="0 0 436.7 46.7">
    <style>.st0{fill:#1d1d1b}.st1{fill:#0093d3}</style>
    <g id="Calque_1-2">
        <path class="st0" d="M0 .6h11.4v35.8h17.1v9.7H0V.6zM34.1 30.1V.6h11.4v29.2c0 5.9 2 6.7 6.5 6.7s6.4-.6 6.4-6.6V.6h10.8V30c0 13.3-4.1 16.7-17.3 16.7s-17.8-3-17.8-16.6z"/>
        <path class="st0" d="M16.9 16.3L19.6.6H31l-9.4 18-4.7-2.3zM72.7 45.5l1.5-9.6c4.3.7 8.6 1.1 13 1.3 4.9 0 5.9-.5 5.9-4.1 0-3.2-.5-3.6-6.5-5-11.2-2.5-14-4.6-14-14.9S77.6 0 88.4 0c4.8 0 9.5.4 14.2 1.4l-1.7 9.6c-4.1-.7-8.3-1.1-12.5-1.2-3.5 0-4.4.7-4.4 3.6 0 3.2.7 3.5 6.2 4.8 11.4 2.7 14.3 4.6 14.3 14.9s-4.3 13.7-17.4 13.7c-4.8-.1-9.7-.5-14.4-1.3zM107.9.6h11.4v45.5h-11.4V.6zM124.4.6H135l13.8 22.6V.6h10.7v45.5h-9.3L135 21.3v24.8h-10.6V.6zM164.6.6h28.5v10H176v7.8h13.2v9.7H176v8.3h17.1v9.7h-28.5V.6z"/>
        <path class="st1" d="M197 .7l16.2-.1c14.1 0 18.5 2.6 18.5 22.7s-4.5 22.8-18.5 22.8c-11.7 0-16.3.1-16.3.1L197 .7zm16.3 36.4c5.8 0 6.8-2.7 6.8-12.2v-3.1c0-9.5-1-11.9-6.8-11.9h-4.9v27.2h4.9zM235.9.6h11.4v45.5h-11.4V.6zM251.3 23.4C251.3 4 256.7.1 270 .1c4.2-.1 8.5.3 12.7 1l-1.4 9.8c-3.8-.6-7.6-.9-11.4-.9-5.6 0-6.8 1.9-6.8 11.4v4.1c0 9.4 1 11.9 7.3 11.9 1.3 0 2.6-.1 4-.3V22.7h10v22.5c-4.7 1-9.5 1.5-14.3 1.4-13.7.1-18.8-3.8-18.8-23.2zM288.8.6h11.4v45.5h-11.4V.6zM315.3 10.6h-12V.6h35.4v10h-12v35.5h-11.4V10.6zM346.1 46.1h-11.3L349.6.4h10.3l14 45.7H362l-1.5-5.7h-12.7l-1.7 5.7zm8.1-28.7l-3.9 13.9h7.7l-3.8-13.9zM376.7.6h11.4v35.8h17.1v9.7h-28.5V.6zM408.2.6h28.5v10h-17.1v7.8h13.2v9.7h-13.2v8.3h17.1v9.7h-28.5V.6z"/>
    </g>
</svg>
